ply
format ascii 1.0
comment Deterministic lightweight Gaussian splat fixture
element vertex 8
property float x
property float y
property float z
property float nx
property float ny
property float nz
property float f_dc_0
property float f_dc_1
property float f_dc_2
property float opacity
property float scale_0
property float scale_1
property float scale_2
property float rot_0
property float rot_1
property float rot_2
property float rot_3
end_header
-0.6 -0.4 0.0 0 0 0  0.8  0.1 -0.2 5 -2.2 -2.2 -2.2 1 0 0 0
-0.2 -0.4 0.0 0 0 0  0.4  0.4 -0.1 5 -2.2 -2.2 -2.2 1 0 0 0
 0.2 -0.4 0.0 0 0 0 -0.1  0.6  0.1 5 -2.2 -2.2 -2.2 1 0 0 0
 0.6 -0.4 0.0 0 0 0 -0.2  0.2  0.8 5 -2.2 -2.2 -2.2 1 0 0 0
-0.6  0.4 0.0 0 0 0  0.6 -0.1  0.2 5 -2.2 -2.2 -2.2 1 0 0 0
-0.2  0.4 0.0 0 0 0  0.2  0.5  0.4 5 -2.2 -2.2 -2.2 1 0 0 0
 0.2  0.4 0.0 0 0 0 -0.1  0.3  0.7 5 -2.2 -2.2 -2.2 1 0 0 0
 0.6  0.4 0.0 0 0 0  0.7  0.2  0.0 5 -2.2 -2.2 -2.2 1 0 0 0
